<?xml version="1.0" standalone="no"?>
<!DOCTYPE svg PUBLIC "-//W3C//DTD SVG 20010904//EN"
 "http://www.w3.org/TR/2001/REC-SVG-20010904/DTD/svg10.dtd">
<svg version="1.0" xmlns="http://www.w3.org/2000/svg"
 width="294.000000pt" height="294.000000pt" viewBox="0 0 294.000000 294.000000"
 preserveAspectRatio="xMidYMid meet">
<metadata>
Created by potrace 1.11, written by Peter Selinger 2001-2013
</metadata>
<g transform="translate(0.000000,294.000000) scale(0.100000,-0.100000)"
fill="#000000" stroke="none">
<path d="M1281 2884 c-97 -22 -170 -71 -234 -157 -61 -81 -73 -134 -77 -339 0
-16 -4 -28 -10 -28 -5 0 -10 7 -10 15 0 8 -5 15 -11 15 -5 0 -8 4 -5 8 6 10
-56 108 -82 132 -63 56 -138 97 -197 106 -69 10 -169 4 -213 -13 -58 -21 -134
-68 -125 -77 3 -3 1 -6 -5 -6 -21 0 -99 -98 -106 -132 -2 -7 -9 -26 -16 -43
-13 -31 -21 -172 -11 -190 3 -5 6 -16 7 -23 2 -8 6 -21 10 -30 4 -9 9 -26 11
-36 2 -11 8 -25 13 -31 5 -7 7 -15 3 -18 -3 -4 -1 -7 6 -7 7 0 10 -3 8 -8 -3
-4 3 -25 14 -46 10 -22 19 -46 19 -53 0 -7 4 -21 9 -31 10 -17 22 -48 27 -67
1 -5 16 -43 33 -82 16 -40 27 -73 24 -73 -3 0 -1 -6 4 -12 8 -11 44 -98 49
-118 0 -3 5 -16 11 -30 6 -14 41 -105 78 -203 l66 -177 3 -353 c2 -193 6 -363
9 -377 8 -30 46 -108 67 -134 45 -58 154 -141 171 -130 5 3 9 1 9 -4 0 -22
142 -27 687 -26 432 0 585 3 596 12 7 6 16 9 19 7 3 -3 33 9 67 26 83 42 176
148 182 206 0 5 5 14 11 21 6 6 7 12 3 12 -4 0 -2 7 5 15 7 8 10 15 7 15 -4 0
26 125 47 195 1 6 6 28 11 50 4 22 10 44 13 50 3 5 7 20 8 33 2 14 6 32 10 41
4 9 8 23 9 31 1 8 8 35 14 60 7 25 14 52 15 60 2 8 6 31 10 50 4 19 10 49 13
65 3 17 7 140 9 275 3 231 2 249 -19 307 -12 35 -34 77 -49 94 -16 17 -28 33
-28 36 0 16 -123 89 -165 99 -17 3 -48 8 -70 11 -25 3 -49 14 -63 29 -13 13
-19 24 -15 24 4 0 -15 23 -42 50 -27 28 -55 50 -62 50 -7 0 -13 4 -13 9 0 8
-32 22 -55 25 -5 1 -13 5 -16 9 -9 12 -101 24 -152 20 l-47 -4 0 43 c-1 24 -2
138 -3 253 l-2 210 -34 68 c-19 38 -42 74 -51 80 -10 7 -17 15 -16 19 0 4 -18
23 -41 43 -24 20 -43 33 -43 28 0 -4 -4 -3 -8 2 -34 47 -188 73 -291 49z"/>
</g>
</svg>
